<svg width="54" height="59" viewBox="0 0 54 59" fill="none" xmlns="http://www.w3.org/2000/svg">
<path d="M16.7784 44.4529C16.7784 49.5047 23.6084 56 33.354 56C43.0996 56 51 48.1218 51 38.4035C51 28.6852 33.354 5 33.354 5C33.354 5 29.2527 10.5049 25.0046 17.2958M16.7784 44.4529C24.388 44.4529 30.5567 38.3585 30.5567 30.8406C30.5567 27.5707 27.9503 22.257 25.0046 17.2958M16.7784 44.4529C9.16879 44.4529 3 38.3585 3 30.8406C3 23.3227 16.7784 5.00011 16.7784 5.00011C16.7784 5.00011 21.1777 10.8504 25.0046 17.2958" stroke="#78879A" stroke-width="5"/>
</svg>
