<svg width="62" height="39" viewBox="0 0 62 39" fill="none" xmlns="http://www.w3.org/2000/svg">
<path d="M0 8.90083C8.24086 8.90395 9.65618 2.66082 16.4817 3.01448C22.4505 3.32374 24.6344 8.73578 30.6089 8.90083C37.01 9.07765 39.5098 3.01448 45.9133 3.01448C52.3169 3.01448 54.1542 8.90083 61.2178 8.90083" stroke="#78879A" stroke-width="5"/>
<path d="M0 35.9965C8.24086 35.9996 9.65618 29.7565 16.4817 30.1102C22.4505 30.4194 24.6344 35.8315 30.6089 35.9965C37.01 36.1734 39.5098 30.1102 45.9133 30.1102C52.3169 30.1102 54.1542 35.9965 61.2178 35.9965" stroke="#78879A" stroke-width="5"/>
<path d="M0 21.8686C8.24086 21.8717 9.65618 15.6286 16.4817 15.9823C22.4505 16.2915 24.6344 21.7036 30.6089 21.8686C37.01 22.0454 39.5098 15.9823 45.9133 15.9823C52.3169 15.9823 54.1542 21.8686 61.2178 21.8686" stroke="#78879A" stroke-width="5"/>
</svg>
