<svg width="65" height="55" viewBox="0 0 65 55" fill="none" xmlns="http://www.w3.org/2000/svg">
<path d="M36.25 47C36.25 49.7614 38.4886 52 41.25 52C44.0114 52 46.25 49.7614 46.25 47C46.25 44.2386 44.0114 42 41.25 42L0 42.0001" stroke="#78879A" stroke-width="5"/>
<path d="M51.54 26.5C51.54 23.4624 53.9935 21 57.02 21C60.0465 21 62.5 23.4624 62.5 26.5C62.5 29.5376 60.0465 32 57.02 32H0" stroke="#78879A" stroke-width="5"/>
<path d="M37.4566 18.75C37.4566 16.6789 39.0333 15 40.9783 15C42.9233 15 44.5 16.6789 44.5 18.75C44.5 20.8211 42.9233 22.5 40.9783 22.5H0" stroke="#78879A" stroke-width="5"/>
<path d="M22.5952 8C22.5952 5.23858 24.8125 3 27.5476 3C30.2827 3 32.5 5.23858 32.5 8C32.5 10.7614 30.2827 13 27.5476 13H0" stroke="#78879A" stroke-width="5"/>
</svg>
