<svg width="43" height="67" viewBox="0 0 43 67" fill="none" xmlns="http://www.w3.org/2000/svg">
<path d="M15 64C21.6274 64 27 58.708 27 52.1799C27 47.7183 24.4904 43.834 20.7857 41.822L20.7857 8.27682C20.7857 5.2437 18.0793 3 15 3C11.9207 3 9.21429 5.2437 9.21429 8.27682V41.822C5.50964 43.834 3 47.7183 3 52.1799C3 58.708 8.37258 64 15 64Z" stroke="#78879A" stroke-width="5"/>
<path d="M36.4115 26C38.8479 26 40.8241 23.9918 40.8241 21.5146C40.8241 19.0374 36.4126 13 36.4126 13C36.4126 13 32 19.0374 32 21.5146C32 23.9918 33.9751 26 36.4115 26Z" stroke="#78879A" stroke-width="3"/>
</svg>
