<svg width="128" height="75" viewBox="0 0 128 75" fill="none" xmlns="http://www.w3.org/2000/svg">
<path d="M0 15.338C17.2308 15.3445 20.1901 2.29082 34.4615 3.03027C46.9416 3.6769 51.508 14.9929 64 15.338C77.3841 15.7077 82.6108 3.03027 96 3.03027C109.389 3.03027 113.231 15.338 128 15.338" stroke="#929292" stroke-width="6"/>
<path d="M0 71.9918C17.2308 71.9983 20.1901 58.9446 34.4615 59.6841C46.9416 60.3307 51.508 71.6467 64 71.9918C77.3841 72.3615 82.6108 59.6841 96 59.6841C109.389 59.6841 113.231 71.9918 128 71.9918" stroke="#929292" stroke-width="6"/>
<path d="M0 42.4532C17.2308 42.4597 20.1901 29.4061 34.4615 30.1455C46.9416 30.7921 51.508 42.1081 64 42.4532C77.3841 42.8229 82.6108 30.1455 96 30.1455C109.389 30.1455 113.231 42.4532 128 42.4532" stroke="#929292" stroke-width="6"/>
</svg>
