<svg width="106" height="115" viewBox="0 0 106 115" fill="none" xmlns="http://www.w3.org/2000/svg">
<path d="M32.2139 88.0002C32.2139 98.5 46.3415 112 66.4999 112C86.6583 112 103 95.6257 103 75.4269C103 55.2281 66.4999 6 66.4999 6C66.4999 6 58.0166 17.4416 49.2296 31.5561M32.2139 88.0002C47.954 88.0002 60.7139 75.3333 60.7139 59.7078C60.7139 52.9117 55.3225 41.8675 49.2296 31.5561M32.2139 88.0002C16.4738 88.0002 3.71387 75.3333 3.71387 59.7078C3.71387 44.0824 32.2139 6.00024 32.2139 6.00024C32.2139 6.00024 41.3138 18.1597 49.2296 31.5561" stroke="#929292" stroke-width="6"/>
</svg>
