<svg width="128" height="86" viewBox="0 0 128 86" fill="none" xmlns="http://www.w3.org/2000/svg">
<path d="M72.5 73C72.5 78.5228 76.9772 83 82.5 83C88.0228 83 92.5 78.5228 92.5 73C92.5 67.4772 88.0228 63 82.5 63L0 63.0002" stroke="#929292" stroke-width="6"/>
<path d="M103.08 39C103.08 32.9249 107.987 28 114.04 28C120.093 28 125 32.9249 125 39C125 45.0751 120.093 50 114.04 50H0" stroke="#929292" stroke-width="6"/>
<path d="M74.9131 28.5C74.9131 24.3579 78.0666 21 81.9566 21C85.8465 21 89 24.3579 89 28.5C89 32.6421 85.8465 36 81.9566 36H0" stroke="#929292" stroke-width="6"/>
<path d="M45.1905 13C45.1905 7.47715 49.625 3 55.0952 3C60.5655 3 65 7.47715 65 13C65 18.5228 60.5655 23 55.0952 23H0" stroke="#929292" stroke-width="6"/>
</svg>
