<svg width="960" height="960" viewBox="0 0 960 960" fill="none" xmlns="http://www.w3.org/2000/svg">
<circle cx="480" cy="480" r="480" fill="white"/>
<path d="M655.945 655.945C687.646 687.646 687.963 740.118 649.496 763.145C617.208 782.473 581.679 796.24 544.38 803.659C480.366 816.392 414.014 809.857 353.714 784.88C293.415 759.903 241.876 717.607 205.615 663.338C169.354 609.07 150 545.268 150 480C150 414.732 169.354 350.93 205.615 296.662C241.876 242.394 293.415 200.097 353.714 175.12C414.014 150.143 480.366 143.608 544.38 156.341C581.679 163.76 617.208 177.527 649.496 196.855C687.964 219.882 687.646 272.354 655.945 304.055V304.055C624.243 335.757 572.547 333.199 529.732 319.899C524.154 318.167 518.472 316.721 512.706 315.575C480.186 309.106 446.478 312.426 415.844 325.115C385.211 337.803 359.028 359.291 340.607 386.861C322.185 414.43 312.353 446.843 312.353 480C312.353 513.158 322.185 545.57 340.607 573.14C359.028 600.709 385.211 622.197 415.844 634.886C446.478 647.575 480.186 650.894 512.706 644.426C518.472 643.279 524.154 641.834 529.732 640.101C572.547 626.801 624.243 624.243 655.945 655.945V655.945Z" fill="#3F3F3F"/>
<path d="M406.9 555C398.064 555 390.9 547.837 390.9 539V447.16C390.9 438.324 398.064 431.16 406.9 431.16H415.58C424.417 431.16 431.58 438.324 431.58 447.16V539C431.58 547.837 424.417 555 415.58 555H406.9Z" fill="#3F3F3F"/>
<path d="M467.369 555C458.533 555 451.369 547.837 451.369 539V447.16C451.369 438.324 458.533 431.16 467.369 431.16H479.303C484.376 431.16 489.149 433.566 492.166 437.645L535.969 496.86V447.16C535.969 438.324 543.133 431.16 551.969 431.16H553.089C561.926 431.16 569.089 438.324 569.089 447.16V539C569.089 547.837 561.926 555 553.089 555H540.954C535.994 555 531.315 552.7 528.285 548.773L484.489 492V539C484.489 547.837 477.326 555 468.489 555H467.369Z" fill="#3F3F3F"/>
</svg>
