<svg width="49" height="49" viewBox="0 0 49 49" fill="none" xmlns="http://www.w3.org/2000/svg">
<g clip-path="url(#clip0_52_73)">
<path d="M6 32.5H43C46.0376 32.5 48.5 34.9624 48.5 38V43C48.5 46.0376 46.0376 48.5 43 48.5H6C2.96243 48.5 0.5 46.0376 0.5 43V38C0.5 34.9624 2.96243 32.5 6 32.5ZM25 0.5C32.4558 0.5 38.5 6.54416 38.5 14C38.5 21.4558 32.4558 27.5 25 27.5C17.5442 27.5 11.5 21.4558 11.5 14C11.5 6.54416 17.5442 0.5 25 0.5Z" fill="#929292" stroke="#929292"/>
</g>
<defs>
<clipPath id="clip0_52_73">
<rect width="49" height="49" fill="white"/>
</clipPath>
</defs>
</svg>
