<svg width="50" height="49" viewBox="0 0 50 49" fill="none" xmlns="http://www.w3.org/2000/svg">
<g clip-path="url(#clip0_53_28)">
<mask id="mask0_53_28" style="mask-type:luminance" maskUnits="userSpaceOnUse" x="0" y="0" width="50" height="49">
<path d="M49.5 0H0.5V49H49.5V0Z" fill="white"/>
</mask>
<g mask="url(#mask0_53_28)">
<path d="M6.5 32.5H43.5C46.5376 32.5 49 34.9624 49 38V43C49 46.0376 46.5376 48.5 43.5 48.5H6.5C3.46243 48.5 1 46.0376 1 43V38C1 34.9624 3.46243 32.5 6.5 32.5ZM25.5 0.5C32.9558 0.5 39 6.54416 39 14C39 21.4558 32.9558 27.5 25.5 27.5C18.0442 27.5 12 21.4558 12 14C12 6.54416 18.0442 0.5 25.5 0.5Z" fill="#424242" stroke="#424242"/>
</g>
</g>
<defs>
<clipPath id="clip0_53_28">
<rect width="49" height="49" fill="white" transform="translate(0.5)"/>
</clipPath>
</defs>
</svg>
