<svg width="52" height="49" viewBox="0 0 52 49" fill="none" xmlns="http://www.w3.org/2000/svg">
<g clip-path="url(#clip0_53_48)">
<mask id="mask0_53_48" style="mask-type:luminance" maskUnits="userSpaceOnUse" x="0" y="0" width="52" height="49">
<path d="M51.5 0H0.5V49H51.5V0Z" fill="white"/>
</mask>
<g mask="url(#mask0_53_48)">
<path d="M6.5 47.4998C4.29086 47.4998 2.5 45.7089 2.5 43.4998V25.1693C2.5 24.101 2.92739 23.077 3.6869 22.3257L22.9955 3.22469C24.5308 1.70594 26.9944 1.68001 28.5612 3.16612L48.7526 22.3167C49.549 23.072 50 24.1214 50 25.219V43.4998C50 45.7089 48.2091 47.4998 46 47.4998H35.5C33.2909 47.4998 31.5 45.7089 31.5 43.4998V33.4998C31.5 31.2907 29.7091 29.4998 27.5 29.4998H25.75H24C21.7909 29.4998 20 31.2907 20 33.4998V43.4998C20 45.7089 18.2091 47.4998 16 47.4998H6.5Z" stroke="#424242" stroke-width="3"/>
</g>
</g>
<defs>
<clipPath id="clip0_53_48">
<rect width="51" height="49" fill="white" transform="translate(0.5)"/>
</clipPath>
</defs>
</svg>
