<svg width="49" height="47" viewBox="0 0 49 47" fill="none" xmlns="http://www.w3.org/2000/svg">
<path d="M4.5 46.4998C2.29086 46.4998 0.5 44.7089 0.5 42.4998V24.1693C0.5 23.101 0.927386 22.077 1.6869 21.3257L20.9955 2.22469C22.5308 0.705935 24.9944 0.680013 26.5612 2.16612L46.7526 21.3167C47.549 22.072 48 23.1214 48 24.219V42.4998C48 44.7089 46.2091 46.4998 44 46.4998H33.5C31.2909 46.4998 29.5 44.7089 29.5 42.4998V32.4998C29.5 30.2907 27.7091 28.4998 25.5 28.4998H23.75H22C19.7909 28.4998 18 30.2907 18 32.4998V42.4998C18 44.7089 16.2091 46.4998 14 46.4998H4.5Z" fill="#FB923C"/>
</svg>
