<svg width="50" height="47" viewBox="0 0 50 47" fill="none" xmlns="http://www.w3.org/2000/svg">
<g clip-path="url(#clip0_53_34)">
<mask id="mask0_53_34" style="mask-type:luminance" maskUnits="userSpaceOnUse" x="0" y="0" width="50" height="47">
<path d="M49.5 0H0.5V47H49.5V0Z" fill="white"/>
</mask>
<g mask="url(#mask0_53_34)">
<path d="M5 46.4998C2.79086 46.4998 1 44.7089 1 42.4998V24.1693C1 23.101 1.42739 22.077 2.1869 21.3257L21.4955 2.22469C23.0308 0.705935 25.4944 0.680013 27.0612 2.16612L47.2526 21.3167C48.049 22.072 48.5 23.1214 48.5 24.219V42.4998C48.5 44.7089 46.7091 46.4998 44.5 46.4998H34C31.7909 46.4998 30 44.7089 30 42.4998V32.4998C30 30.2907 28.2091 28.4998 26 28.4998H24.25H22.5C20.2909 28.4998 18.5 30.2907 18.5 32.4998V42.4998C18.5 44.7089 16.7091 46.4998 14.5 46.4998H5Z" fill="#424242" stroke="#424242"/>
</g>
</g>
<defs>
<clipPath id="clip0_53_34">
<rect width="49" height="47" fill="white" transform="translate(0.5)"/>
</clipPath>
</defs>
</svg>
