<svg width="50" height="49" viewBox="0 0 50 49" fill="none" xmlns="http://www.w3.org/2000/svg">
<g clip-path="url(#clip0_52_66)">
<path d="M5 48.5C2.79086 48.5 1 46.7091 1 44.5V21.5C1 19.2909 2.79086 17.5 5 17.5H25.25H45.5C47.7091 17.5 49.5 19.2909 49.5 21.5V44.5C49.5 46.7091 47.7091 48.5 45.5 48.5H5Z" fill="#60A5FA"/>
<path d="M4.5 13H45.5V11C45.5 9.89543 44.6046 9 43.5 9H6.5C5.39543 9 4.5 9.89543 4.5 11V13Z" fill="#60A5FA"/>
<path d="M9 5H41V3C41 1.89543 40.1046 1 39 1H11C9.89543 1 9 1.89543 9 3V5Z" fill="#60A5FA"/>
<path d="M5 48.5C2.79086 48.5 1 46.7091 1 44.5V21.5C1 19.2909 2.79086 17.5 5 17.5H25.25H45.5C47.7091 17.5 49.5 19.2909 49.5 21.5V44.5C49.5 46.7091 47.7091 48.5 45.5 48.5H5Z" stroke="#60A5FA"/>
<path d="M4.5 13H45.5V11C45.5 9.89543 44.6046 9 43.5 9H6.5C5.39543 9 4.5 9.89543 4.5 11V13Z" stroke="#60A5FA"/>
<path d="M9 5H41V3C41 1.89543 40.1046 1 39 1H11C9.89543 1 9 1.89543 9 3V5Z" stroke="#60A5FA"/>
</g>
<defs>
<clipPath id="clip0_52_66">
<rect width="50" height="49" fill="white"/>
</clipPath>
</defs>
</svg>
