<svg width="53" height="51" viewBox="0 0 53 51" fill="none" xmlns="http://www.w3.org/2000/svg">
<g clip-path="url(#clip0_53_65)">
<mask id="mask0_53_65" style="mask-type:luminance" maskUnits="userSpaceOnUse" x="0" y="0" width="53" height="51">
<path d="M52.5 0H0.5V51H52.5V0Z" fill="white"/>
</mask>
<g mask="url(#mask0_53_65)">
<g opacity="0.4">
<path d="M6 49.5C3.79086 49.5 2 47.7091 2 45.5V22.5C2 20.2909 3.79086 18.5 6 18.5H26.25H46.5C48.7091 18.5 50.5 20.2909 50.5 22.5V45.5C50.5 47.7091 48.7091 49.5 46.5 49.5H6Z" stroke="#424242" stroke-width="3"/>
<path d="M5.5 14H46.5V12C46.5 10.8954 45.6046 10 44.5 10H7.5C6.39543 10 5.5 10.8954 5.5 12V14Z" stroke="#424242" stroke-width="3"/>
<path d="M10 6H42V4C42 2.89543 41.1046 2 40 2H12C10.8954 2 10 2.89543 10 4V6Z" stroke="#424242" stroke-width="3"/>
</g>
</g>
</g>
<defs>
<clipPath id="clip0_53_65">
<rect width="52" height="51" fill="white" transform="translate(0.5)"/>
</clipPath>
</defs>
</svg>
