<svg width="51" height="49" viewBox="0 0 51 49" fill="none" xmlns="http://www.w3.org/2000/svg">
<g clip-path="url(#clip0_53_54)">
<mask id="mask0_53_54" style="mask-type:luminance" maskUnits="userSpaceOnUse" x="0" y="0" width="51" height="49">
<path d="M50.5 0H0.5V49H50.5V0Z" fill="white"/>
</mask>
<g mask="url(#mask0_53_54)">
<path d="M5.5 48.5C3.29086 48.5 1.5 46.7091 1.5 44.5V21.5C1.5 19.2909 3.29086 17.5 5.5 17.5H25.75H46C48.2091 17.5 50 19.2909 50 21.5V44.5C50 46.7091 48.2091 48.5 46 48.5H5.5Z" fill="#424242"/>
<path d="M5 13H46V11C46 9.89543 45.1046 9 44 9H7C5.89543 9 5 9.89543 5 11V13Z" fill="#424242"/>
<path d="M9.5 5H41.5V3C41.5 1.89543 40.6046 1 39.5 1H11.5C10.3954 1 9.5 1.89543 9.5 3V5Z" fill="#424242"/>
<path d="M5.5 48.5C3.29086 48.5 1.5 46.7091 1.5 44.5V21.5C1.5 19.2909 3.29086 17.5 5.5 17.5H25.75H46C48.2091 17.5 50 19.2909 50 21.5V44.5C50 46.7091 48.2091 48.5 46 48.5H5.5Z" stroke="#424242"/>
<path d="M5 13H46V11C46 9.89543 45.1046 9 44 9H7C5.89543 9 5 9.89543 5 11V13Z" stroke="#424242"/>
<path d="M9.5 5H41.5V3C41.5 1.89543 40.6046 1 39.5 1H11.5C10.3954 1 9.5 1.89543 9.5 3V5Z" stroke="#424242"/>
</g>
</g>
<defs>
<clipPath id="clip0_53_54">
<rect width="50" height="49" fill="white" transform="translate(0.5)"/>
</clipPath>
</defs>
</svg>
