<svg width="97" height="110" viewBox="0 0 97 110" fill="none" xmlns="http://www.w3.org/2000/svg">
<path d="M4 47.5001V96.0001C4 101.523 8.47715 106 14 106H83C88.5228 106 93 101.523 93 96.0001V47.5001M4 47.5001V25.5078C4 19.985 8.47715 15.5078 14 15.5078L28.5 15.5078M4 47.5001H93M93 47.5001V25.5078C93 19.9849 88.5229 15.5078 83.0001 15.5078L68.5 15.5077M28.5 15.5078L48.5 15.5078L68.5 15.5077M28.5 15.5078L68.5 15.5077M28.5 15.5078V4.00012M28.5 15.5078V26.4924M68.5 15.5077V26.4923M68.5 15.5077V4" stroke="#16A34A" stroke-width="8" stroke-linecap="round"/>
</svg>
