<svg width="51" height="40" viewBox="0 0 51 40" fill="none" xmlns="http://www.w3.org/2000/svg">
<path d="M2 11.0244V36C2 37.1046 2.89543 38 4 38H47C48.1046 38 49 37.1046 49 36V11.0244C49 9.91982 48.1046 9.02439 47 9.02439H37.8201C37.1876 9.02439 36.5924 8.72522 36.215 8.21764L32.1924 2.80675C31.815 2.29917 31.2198 2 30.5873 2H19.4498C18.8701 2 18.3188 2.25158 17.939 2.68955L13.0425 8.33484C12.6627 8.77281 12.1114 9.02439 11.5317 9.02439H4C2.89543 9.02439 2 9.91982 2 11.0244Z" stroke="white" stroke-width="4"/>
<path d="M32 22.5C32 26.0899 29.0899 29 25.5 29C21.9101 29 19 26.0899 19 22.5C19 18.9101 21.9101 16 25.5 16C29.0899 16 32 18.9101 32 22.5Z" stroke="white" stroke-width="4"/>
</svg>
