<svg width="51" height="49" viewBox="0 0 51 49" fill="none" xmlns="http://www.w3.org/2000/svg">
<g clip-path="url(#clip0_52_75)">
<path d="M6 47.4998C3.79086 47.4998 2 45.7089 2 43.4998V25.1693C2 24.101 2.42739 23.077 3.1869 22.3257L22.4955 3.22469C24.0308 1.70594 26.4944 1.68001 28.0612 3.16612L48.2526 22.3167C49.049 23.072 49.5 24.1214 49.5 25.219V43.4998C49.5 45.7089 47.7091 47.4998 45.5 47.4998H35C32.7909 47.4998 31 45.7089 31 43.4998V33.4998C31 31.2907 29.2091 29.4998 27 29.4998H25.25H23.5C21.2909 29.4998 19.5 31.2907 19.5 33.4998V43.4998C19.5 45.7089 17.7091 47.4998 15.5 47.4998H6Z" stroke="#929292" stroke-width="3"/>
</g>
<defs>
<clipPath id="clip0_52_75">
<rect width="51" height="49" fill="white"/>
</clipPath>
</defs>
</svg>
