<svg width="51" height="45" viewBox="0 0 51 45" fill="none" xmlns="http://www.w3.org/2000/svg">
<path d="M37.8909 9.94864C42.3884 11.5114 46.4458 15.2334 48.8351 22.0182C48.9457 22.3321 48.9725 22.6719 48.9026 22.9973C47.5906 29.1096 42.3055 33.4736 36.1818 34.8893M37.8909 9.94864L31.653 2.69586C31.2731 2.2541 30.7194 2 30.1367 2H20.3831C18.7622 2 17.8146 3.82698 18.7481 5.15197L23.1476 11.3958M37.8909 9.94864C32.9666 8.23761 27.5148 9.11525 23.1476 11.3958M37.8909 9.94864C26.0962 19.9891 31.8371 30.7592 36.1818 34.8893M23.1476 11.3958C20.3585 12.8523 18.0117 14.881 16.5273 17.1731M16.5273 17.1731C15.5091 18.7451 14.8966 20.4411 14.8252 22.1613C14.8159 22.3848 14.8551 22.6075 14.9314 22.8178C15.5898 24.6325 16.4037 26.2307 17.3401 27.625M16.5273 17.1731L7.32699 7.47528C6.19078 6.27764 4.1748 6.89448 3.90329 8.52285L2.16934 18.9219C2.06307 19.5592 2.27123 20.2086 2.7282 20.6654L4.15156 22.0881C4.87257 22.8088 4.93614 23.9565 4.29913 24.7524L2.59304 26.884C2.21774 27.3529 2.07304 27.9657 2.19894 28.553L3.82255 36.1265C4.14856 37.6472 6.00934 38.2302 7.14481 37.1674L17.3401 27.625M17.3401 27.625C19.4298 30.7367 22.1296 32.8328 25.0727 34.0538M36.1818 34.8893L31.6433 42.0687C31.2768 42.6485 30.6387 43 29.9527 43H22.8341C21.2355 43 20.2829 41.2173 21.1715 39.8883L25.0727 34.0538M36.1818 34.8893C32.5559 35.7275 28.636 35.5321 25.0727 34.0538M40.4545 21.6458V22.5" stroke="white" stroke-width="4" stroke-linecap="round"/>
</svg>
